<svg xmlns="http://www.w3.org/2000/svg" xmlns:xlink="http://www.w3.org/1999/xlink" xmlns:serif="http://www.serif.com/" width="60px" height="60px" viewBox="0 0 108 108" version="1.1" xml:space="preserve" style="fillRule:evenodd;clipRule:evenodd;strokeLinejoin:round;strokeMiterlimit:2;">
    <g transform="matrix(1,0,0,1,-35.7177,-117.286)">
        <g transform="matrix(0.222222,0,0,1.75002,0,0)">
            <g transform="matrix(1.07458,0,0,0.136453,-194.956,58.4752)">
                <g transform="matrix(0.33815,0,0,0.33815,191.937,-89.8734)">
                    <circle cx="1078.98" cy="1118.7" r="474.107" style="fill:url(#_Linear1);"/>
                </g>
                <g transform="matrix(0.476251,0,0,0.476251,42.9282,-244.367)">
                    <circle cx="1078.98" cy="1118.7" r="474.107" style="fill:url(#_Linear2);"/>
                </g>
                <g transform="matrix(0.33815,0,0,0.33815,191.937,-89.8734)">
                    <circle cx="1078.98" cy="1118.7" r="474.107" style="fill:url(#_Linear3);"/>
                </g>
                <g transform="matrix(0.33815,0,0,0.33815,218.645,-49.7363)">
                    <path d="M591.231,1240.18C549.715,1169.73 525.893,1087.62 525.893,1000C525.893,738.333 738.333,525.893 1000,525.893C1261.67,525.893 1474.11,738.333 1474.11,1000C1474.11,1173.06 1381.18,1324.59 1242.55,1407.37C1037.2,1280.5 753.703,1247.95 591.231,1240.18Z" style="fill:url(#_Linear4);"/>
                </g>
                <g transform="matrix(0.33815,0,0,0.33815,218.645,-49.7363)">
                    <path d="M529.251,1056.66C527.033,1038.08 525.893,1019.17 525.893,1000C525.893,738.333 738.333,525.893 1000,525.893C1223.41,525.893 1410.93,680.75 1460.99,888.887C1402.23,1107.09 1292.65,1354.9 1118.72,1178.42C937.087,994.129 686.245,1016.62 529.251,1056.66Z" style="fill:url(#_Linear5);"/>
                </g>
                <g transform="matrix(0.33815,0,0,0.33815,218.645,-49.7363)">
                    <path d="M604.267,738.952C689.143,610.614 834.756,525.893 1000,525.893C1159.15,525.893 1300.1,604.483 1386.1,724.94C1321.1,876.063 1179.28,1119.42 1000,915.04C861.659,757.332 710.779,731.181 604.267,738.952Z" style="fill:url(#_Linear6);"/>
                </g>
                <g transform="matrix(0.33815,0,0,0.33815,218.645,-49.7363)">
                    <path d="M578.708,782.463C619.614,742.052 663.601,706.685 702.08,679.497L702.079,679.498L702.132,679.455L702.553,679.114L702.979,678.772L703.035,678.726L703.083,678.688L703.442,678.399L703.934,678.004L703.992,677.958L704.03,677.928L704.332,677.686L704.906,677.228L704.952,677.192L704.973,677.174L705.224,676.974L705.906,676.434L705.913,676.428L705.915,676.426C707.834,674.906 709.765,673.4 711.708,671.909L711.724,671.896L711.773,671.859L712.424,671.36L712.657,671.182L712.699,671.15L712.791,671.08L713.332,670.668L713.61,670.456L713.677,670.406L713.783,670.325L714.241,669.977L714.567,669.731L714.656,669.664L714.761,669.584L715.152,669.289L715.531,669.005L715.637,668.925L715.733,668.853L716.065,668.604L716.502,668.277L716.621,668.188L716.701,668.128L716.979,667.92L717.484,667.544L717.606,667.454L717.666,667.409L717.896,667.238L718.487,666.801L718.593,666.722L718.631,666.694L718.814,666.559L719.529,666.032L719.582,665.993L719.595,665.984C720.907,665.019 722.224,664.061 723.547,663.11L723.559,663.101L723.621,663.057L724.356,662.528L724.515,662.415L724.558,662.384L724.698,662.284L725.286,661.864L725.485,661.722L725.559,661.67L725.725,661.552L726.217,661.202L726.459,661.031L726.561,660.958L726.731,660.838L727.15,660.542L727.436,660.341L727.566,660.249L727.727,660.136L728.085,659.884L728.417,659.652L728.573,659.543L728.718,659.442L729.021,659.229L729.404,658.962L729.581,658.839L729.705,658.753L729.959,658.576L730.399,658.271L730.592,658.137L730.691,658.068L730.899,657.925L731.406,657.575L731.604,657.438L731.677,657.388L731.84,657.276L732.437,656.867L732.618,656.742L732.663,656.711L732.783,656.629L733.528,656.121L733.634,656.048L733.65,656.038C734.323,655.58 734.996,655.123 735.672,654.669L735.672,654.668L735.678,654.664L736.57,654.065L736.659,654.006L736.694,653.982L736.886,653.854L737.521,653.429L737.648,653.345L737.718,653.299L737.956,653.14L738.474,652.796L738.64,652.686L738.743,652.618L738.989,652.455L739.428,652.165L739.633,652.03L739.77,651.94L740.007,651.784L740.384,651.536L740.63,651.375L740.8,651.264L741.018,651.121L741.341,650.91L741.629,650.722L741.831,650.591L742.026,650.464L742.3,650.285L742.631,650.071L742.864,649.92L743.033,649.811L743.261,649.663L743.638,649.42L743.898,649.252L744.039,649.162L744.223,649.043L744.651,648.769L744.935,648.587L745.045,648.517L745.187,648.426L745.675,648.115L745.973,647.924L746.052,647.874L746.152,647.811L746.725,647.448L747.014,647.264L747.06,647.235L747.119,647.198L747.874,646.721L748.056,646.607L748.069,646.599C748.405,646.387 748.742,646.176 749.08,645.964L749.1,645.952L749.348,645.797L750.029,645.372L750.088,645.335L750.145,645.3L750.483,645.091L751.002,644.768L751.098,644.709L751.193,644.65L751.537,644.438L751.977,644.167L752.11,644.085L752.242,644.004L752.572,643.801L752.953,643.567L753.123,643.463L753.293,643.359L753.6,643.173L753.931,642.97L754.138,642.844L754.346,642.718L754.625,642.549L754.911,642.375L755.155,642.228L755.401,642.079L755.649,641.93L755.892,641.783L756.173,641.614L756.458,641.443L756.673,641.314L756.874,641.193L757.192,641.003L757.516,640.809L757.698,640.701L757.858,640.605L758.213,640.394L758.576,640.178L758.724,640.091L758.844,640.019L759.234,639.789L759.638,639.55L759.751,639.483L759.831,639.436L760.254,639.188L760.701,638.925L760.779,638.879L760.82,638.855L761.267,638.594L761.767,638.302L761.809,638.277L761.81,638.277L761.973,638.182L762.834,637.682L763.39,637.36L763.795,637.127L763.825,637.109L763.903,637.064L764.404,636.777L764.789,636.555L764.855,636.517L764.973,636.449L765.431,636.188L765.785,635.986L765.886,635.928L766.046,635.837L766.464,635.6L766.783,635.419L766.919,635.342L767.12,635.228L767.499,635.015L767.782,634.854L767.952,634.759L768.196,634.622L768.536,634.431L768.783,634.292L768.985,634.179L769.273,634.018L769.575,633.85L769.785,633.732L770.019,633.603L770.353,633.416L770.616,633.271L770.789,633.175L771.051,633.03L771.434,632.818L771.659,632.694L771.794,632.62L772.08,632.463L772.517,632.222L772.703,632.12L772.801,632.067L773.101,631.903L773.601,631.629L773.749,631.549L773.809,631.516L774.102,631.357L774.687,631.039L774.797,630.98L774.819,630.968L775.03,630.854C775.962,630.351 776.895,629.85 777.83,629.352L777.856,629.338L777.858,629.338L777.956,629.285L778.642,628.922L778.872,628.8L778.908,628.781L779.049,628.706L779.629,628.4L779.889,628.264L779.958,628.227L780.144,628.13L780.654,627.863L780.907,627.73L781.009,627.677L781.24,627.556L781.694,627.32L781.927,627.199L782.06,627.13L782.338,626.985L782.742,626.777L782.948,626.67L783.11,626.586L783.438,626.417L783.794,626.234L783.971,626.143L784.159,626.047L784.539,625.852L784.851,625.693L784.995,625.619L785.204,625.513L785.642,625.289L785.91,625.153L786.021,625.097L786.242,624.985L786.747,624.73L786.972,624.616L787.048,624.578L787.266,624.468L787.853,624.173L788.037,624.081L788.076,624.061L788.256,623.971L788.961,623.619L789.103,623.548L789.106,623.547L789.132,623.534C790.481,622.862 791.835,622.196 793.192,621.537L793.239,621.513L793.246,621.51L793.409,621.431L794.122,621.086L794.276,621.011L794.315,620.992L794.525,620.891L795.134,620.598L795.315,620.511L795.384,620.478L795.643,620.354L796.175,620.1L796.354,620.014L796.452,619.967L796.762,619.819L797.232,619.597L797.395,619.519L797.519,619.461L797.883,619.288L798.297,619.093L798.438,619.026L798.582,618.959L799.006,618.759L799.367,618.59L799.482,618.536L799.641,618.462L800.13,618.233L800.443,618.088L800.527,618.049L800.689,617.974L801.256,617.711L801.521,617.588L801.574,617.564L801.718,617.497L802.383,617.191L802.603,617.09L802.622,617.081L802.702,617.045C804.76,616.1 806.826,615.17 808.9,614.255L808.938,614.238L808.947,614.234L809.181,614.131L809.892,613.818L809.996,613.773L810.033,613.756L810.319,613.631L810.932,613.363L811.055,613.31L811.118,613.282L811.459,613.134L811.995,612.902L812.115,612.85L812.201,612.813L812.6,612.64L813.071,612.438L813.176,612.392L813.279,612.348L813.743,612.149L814.155,611.973L814.239,611.937L814.351,611.89L814.888,611.66L815.245,611.509L815.303,611.484L815.41,611.439L816.034,611.175L816.34,611.047L816.369,611.034L816.445,611.002C819.256,609.819 822.082,608.663 824.92,607.533L824.94,607.525L824.947,607.522L825.258,607.398L825.955,607.122L826.017,607.098L826.048,607.085L826.417,606.939L827.023,606.702L827.096,606.673L827.146,606.653L827.578,606.483L828.108,606.277L828.176,606.251L828.239,606.226L828.741,606.031L829.204,605.852L829.257,605.831L829.324,605.805L829.905,605.581L830.308,605.426L830.339,605.414L830.394,605.393L831.071,605.134L831.417,605.002L831.423,605L831.437,604.995C835.038,603.622 838.661,602.293 842.304,601.007L842.328,600.998L842.344,600.993L842.807,600.829L843.397,600.622L843.426,600.612L843.451,600.603L843.989,600.415L844.504,600.236L844.524,600.229L844.549,600.221L845.172,600.004L845.62,599.85L845.624,599.848L845.63,599.846C894.029,583.165 945.965,574.106 1000,574.106C1092.61,574.106 1210.12,594.636 1304.25,636.496C1343.3,669.223 1377.01,708.12 1403.86,751.682C1312.4,883.974 1093.04,1010.11 967.535,836.487C906.822,752.497 758.923,744.426 525.893,1021.57C529.143,951.441 548.175,841.424 578.708,782.463Z" style="fill:url(#_Linear7);"/>
                </g>
                <g transform="matrix(0.33815,0,0,0.33815,218.645,-49.7363)">
                    <path d="M851.141,549.772L986.806,788.797C986.806,788.797 806.967,604.065 525.893,1000C525.893,790.323 662.302,612.254 851.141,549.772Z" style="fill:url(#_Linear8);"/>
                    <path d="M702.079,631.285C783.515,565.384 887.182,525.893 1000,525.893C1140.19,525.893 1266.26,586.874 1353.09,683.736C1279.17,826.103 1153.28,978.639 1000,803.903C900.088,690.004 827.71,593.453 702.079,631.285Z" style="fill:url(#_Linear9);"/>
                </g>
                <g transform="matrix(-0.334558,-0.0491527,0.0491527,-0.334558,842.2,672.125)">
                    <path d="M851.141,549.772L986.806,788.797C986.806,788.797 806.967,604.065 525.893,1000C525.893,790.323 662.302,612.254 851.141,549.772Z" style="fill:url(#_Linear10);"/>
                    <path d="M702.079,631.285C783.515,565.384 887.182,525.893 1000,525.893C1140.19,525.893 1266.26,586.874 1353.09,683.736C1279.17,826.103 1153.28,978.639 1000,803.903C900.088,690.004 827.71,593.453 702.079,631.285Z" style="fill:url(#_Linear11);"/>
                </g>
            </g>
        </g>
    </g>
    <defs>
        <linearGradient id="_Linear1" x1="0" y1="0" x2="1" y2="0" gradientUnits="userSpaceOnUse" gradientTransform="matrix(140.301,1639.78,-1639.78,140.301,932.123,166.334)"><stop offset="0" style="stop-color:rgb(139,246,254);stop-opacity:1"/><stop offset="0.73" style="stop-color:rgb(63,181,255);stop-opacity:1"/><stop offset="1" style="stop-color:rgb(35,156,255);stop-opacity:1"/></linearGradient>
        <linearGradient id="_Linear2" x1="0" y1="0" x2="1" y2="0" gradientUnits="userSpaceOnUse" gradientTransform="matrix(5.80614e-14,-948.215,948.215,5.80614e-14,1078.98,1592.8)"><stop offset="0" style="stop-color:rgb(167,248,254);stop-opacity:0"/><stop offset="1" style="stop-color:white;stop-opacity:0.21"/></linearGradient>
        <linearGradient id="_Linear3" x1="0" y1="0" x2="1" y2="0" gradientUnits="userSpaceOnUse" gradientTransform="matrix(140.301,1639.78,-1639.78,140.301,932.123,166.334)"><stop offset="0" style="stop-color:rgb(139,246,254);stop-opacity:1"/><stop offset="0.73" style="stop-color:rgb(63,181,255);stop-opacity:1"/><stop offset="1" style="stop-color:rgb(35,156,255);stop-opacity:1"/></linearGradient>
        <linearGradient id="_Linear4" x1="0" y1="0" x2="1" y2="0" gradientUnits="userSpaceOnUse" gradientTransform="matrix(74.8187,1422.16,-1422.16,74.8187,961.26,305.958)"><stop offset="0" style="stop-color:rgb(139,246,254);stop-opacity:1"/><stop offset="1" style="stop-color:rgb(35,156,255);stop-opacity:1"/></linearGradient>
        <linearGradient id="_Linear5" x1="0" y1="0" x2="1" y2="0" gradientUnits="userSpaceOnUse" gradientTransform="matrix(62.3319,1359.44,-1359.44,62.3319,993.442,477.537)"><stop offset="0" style="stop-color:rgb(139,246,254);stop-opacity:1"/><stop offset="1" style="stop-color:rgb(35,156,255);stop-opacity:1"/></linearGradient>
        <linearGradient id="_Linear6" x1="0" y1="0" x2="1" y2="0" gradientUnits="userSpaceOnUse" gradientTransform="matrix(210.556,1913.93,-1913.93,210.556,1030.65,480.995)"><stop offset="0" style="stop-color:rgb(139,246,254);stop-opacity:1"/><stop offset="1" style="stop-color:rgb(35,156,255);stop-opacity:1"/></linearGradient>
        <linearGradient id="_Linear7" x1="0" y1="0" x2="1" y2="0" gradientUnits="userSpaceOnUse" gradientTransform="matrix(107.622,419.129,-419.129,107.622,1060.36,570.414)"><stop offset="0" style="stop-color:rgb(105,122,181);stop-opacity:0.28"/><stop offset="1" style="stop-color:rgb(59,72,119);stop-opacity:0"/></linearGradient>
        <linearGradient id="_Linear8" x1="0" y1="0" x2="1" y2="0" gradientUnits="userSpaceOnUse" gradientTransform="matrix(548.475,-87.0961,87.0961,548.475,525.893,774.886)"><stop offset="0" style="stop-color:rgb(11,251,205);stop-opacity:1"/><stop offset="1" style="stop-color:rgb(4,202,224);stop-opacity:1"/></linearGradient>
        <linearGradient id="_Linear9" x1="0" y1="0" x2="1" y2="0" gradientUnits="userSpaceOnUse" gradientTransform="matrix(-101.721,-422.608,422.608,-101.721,1167.98,882.169)"><stop offset="0" style="stop-color:rgb(154,253,234);stop-opacity:1"/><stop offset="1" style="stop-color:rgb(24,251,206);stop-opacity:1"/></linearGradient>
        <linearGradient id="_Linear10" x1="0" y1="0" x2="1" y2="0" gradientUnits="userSpaceOnUse" gradientTransform="matrix(548.475,-87.0961,87.0961,548.475,525.893,774.886)"><stop offset="0" style="stop-color:rgb(11,251,205);stop-opacity:1"/><stop offset="1" style="stop-color:rgb(4,202,224);stop-opacity:1"/></linearGradient>
        <linearGradient id="_Linear11" x1="0" y1="0" x2="1" y2="0" gradientUnits="userSpaceOnUse" gradientTransform="matrix(-101.721,-422.608,422.608,-101.721,1167.98,882.169)"><stop offset="0" style="stop-color:rgb(154,253,234);stop-opacity:1"/><stop offset="1" style="stop-color:rgb(24,251,206);stop-opacity:1"/></linearGradient>
    </defs>
</svg>