<svg width="512" height="288" viewBox="0 0 512 288" fill="none" xmlns="http://www.w3.org/2000/svg">
<path d="M24.3116 287.999C10.8847 287.999 0 277.114 0 263.687C0 250.26 10.8847 239.376 24.3117 239.376H145.765V287.999H24.3116Z" fill="#45FF8F"/>
<path d="M405.885 74.5327C415.135 65.0384 430.133 65.0384 439.383 74.5327C448.633 84.027 448.633 99.4203 439.383 108.915L353.061 197.514L319.562 163.132L405.885 74.5327Z" fill="#45DEFF"/>
<path d="M487.688 239.377C501.115 239.377 512 250.262 512 263.689C512 277.116 501.115 288 487.688 288H366.235V239.377H487.688Z" fill="#45BCFF"/>
<path d="M231.403 23.6868C231.403 10.6049 242.008 0 255.089 0C268.171 0 278.776 10.605 278.776 23.6868V149.61H231.403L231.403 23.6868Z" fill="#45FFE9"/>
<path d="M73.2335 108.915C63.9832 99.4203 63.9832 84.027 73.2335 74.5327C82.4838 65.0384 97.4814 65.0384 106.732 74.5327L193.054 163.132L159.556 197.514L73.2335 108.915Z" fill="#45FFD2"/>
</svg>
