<svg width="1100" height="800" viewBox="0 0 1100 800" fill="none" xmlns="http://www.w3.org/2000/svg">
<g clip-path="url(#clip0)">
<rect width="1100" height="800" fill="white"/>
<circle cx="49.5" cy="519.5" r="159.5" fill="#45C7FF" fill-opacity="0.22"/>
<path d="M1304 338.5C1304 426.589 1232.59 498 1144.5 498C1056.41 498 985 426.589 985 338.5C985 250.411 1056.41 179 1144.5 179C1232.59 179 1304 250.411 1304 338.5Z" fill="#45FF79" fill-opacity="0.28"/>
<path d="M1154 594.5C1154 682.589 1082.59 754 994.5 754C906.411 754 835 682.589 835 594.5C835 506.411 906.411 435 994.5 435C1082.59 435 1154 506.411 1154 594.5Z" fill="#45F4FF" fill-opacity="0.28"/>
<path d="M536.437 801C536.437 889.089 465.027 960.499 376.937 960.499C288.848 960.499 217.438 889.089 217.438 801C217.438 712.911 288.848 641.5 376.937 641.5C465.027 641.5 536.437 712.911 536.437 801Z" fill="#FF00B8" fill-opacity="0.11"/>
<path d="M536.438 2.5C536.438 90.5894 465.027 162 376.938 162C288.848 162 217.438 90.5894 217.438 2.5C217.438 -85.5894 288.848 -157 376.938 -157C465.027 -157 536.438 -85.5894 536.438 2.5Z" fill="#FF00B8" fill-opacity="0.11"/>
</g>
<defs>
<clipPath id="clip0">
<rect width="1100" height="800" fill="white"/>
</clipPath>
</defs>
</svg>
