<svg width="876" height="154" viewBox="0 0 876 154" fill="none" xmlns="http://www.w3.org/2000/svg">
<path d="M314.416 89.824C314.416 81.76 316 74.608 319.168 68.368C322.432 62.128 326.848 57.328 332.416 53.968C337.984 50.608 344.176 48.928 350.992 48.928C356.176 48.928 361.12 50.08 365.824 52.384C370.528 54.592 374.272 57.568 377.056 61.312V23.44H397.504V130H377.056V118.192C374.56 122.128 371.056 125.296 366.544 127.696C362.032 130.096 356.8 131.296 350.848 131.296C344.128 131.296 337.984 129.568 332.416 126.112C326.848 122.656 322.432 117.808 319.168 111.568C316 105.232 314.416 97.984 314.416 89.824ZM377.2 90.112C377.2 85.216 376.24 81.04 374.32 77.584C372.4 74.032 369.808 71.344 366.544 69.52C363.28 67.6 359.776 66.64 356.032 66.64C352.288 66.64 348.832 67.552 345.664 69.376C342.496 71.2 339.904 73.888 337.888 77.44C335.968 80.896 335.008 85.024 335.008 89.824C335.008 94.624 335.968 98.848 337.888 102.496C339.904 106.048 342.496 108.784 345.664 110.704C348.928 112.624 352.384 113.584 356.032 113.584C359.776 113.584 363.28 112.672 366.544 110.848C369.808 108.928 372.4 106.24 374.32 102.784C376.24 99.232 377.2 95.008 377.2 90.112ZM427.418 40.72C423.866 40.72 420.89 39.616 418.49 37.408C416.186 35.104 415.034 32.272 415.034 28.912C415.034 25.552 416.186 22.768 418.49 20.56C420.89 18.256 423.866 17.104 427.418 17.104C430.97 17.104 433.898 18.256 436.202 20.56C438.602 22.768 439.802 25.552 439.802 28.912C439.802 32.272 438.602 35.104 436.202 37.408C433.898 39.616 430.97 40.72 427.418 40.72ZM437.354 50.224V130H417.194V50.224H437.354ZM452.088 89.824C452.088 81.76 453.672 74.608 456.84 68.368C460.104 62.128 464.472 57.328 469.944 53.968C475.512 50.608 481.704 48.928 488.52 48.928C494.472 48.928 499.656 50.128 504.072 52.528C508.584 54.928 512.184 57.952 514.872 61.6V50.224H535.176V130H514.872V118.336C512.28 122.08 508.68 125.2 504.072 127.696C499.56 130.096 494.328 131.296 488.376 131.296C481.656 131.296 475.512 129.568 469.944 126.112C464.472 122.656 460.104 117.808 456.84 111.568C453.672 105.232 452.088 97.984 452.088 89.824ZM514.872 90.112C514.872 85.216 513.912 81.04 511.992 77.584C510.072 74.032 507.48 71.344 504.216 69.52C500.952 67.6 497.448 66.64 493.704 66.64C489.96 66.64 486.504 67.552 483.336 69.376C480.168 71.2 477.576 73.888 475.56 77.44C473.64 80.896 472.68 85.024 472.68 89.824C472.68 94.624 473.64 98.848 475.56 102.496C477.576 106.048 480.168 108.784 483.336 110.704C486.6 112.624 490.056 113.584 493.704 113.584C497.448 113.584 500.952 112.672 504.216 110.848C507.48 108.928 510.072 106.24 511.992 102.784C513.912 99.232 514.872 95.008 514.872 90.112ZM575.026 23.44V130H554.866V23.44H575.026ZM669.104 88.384C669.104 91.264 668.912 93.856 668.528 96.16H610.208C610.688 101.92 612.704 106.432 616.256 109.696C619.808 112.96 624.176 114.592 629.36 114.592C636.848 114.592 642.176 111.376 645.344 104.944H667.088C664.784 112.624 660.368 118.96 653.84 123.952C647.312 128.848 639.296 131.296 629.792 131.296C622.112 131.296 615.2 129.616 609.056 126.256C603.008 122.8 598.256 117.952 594.8 111.712C591.44 105.472 589.76 98.272 589.76 90.112C589.76 81.856 591.44 74.608 594.8 68.368C598.16 62.128 602.864 57.328 608.912 53.968C614.96 50.608 621.92 48.928 629.792 48.928C637.376 48.928 644.144 50.56 650.096 53.824C656.144 57.088 660.8 61.744 664.064 67.792C667.424 73.744 669.104 80.608 669.104 88.384ZM648.224 82.624C648.128 77.44 646.256 73.312 642.608 70.24C638.96 67.072 634.496 65.488 629.216 65.488C624.224 65.488 620 67.024 616.544 70.096C613.184 73.072 611.12 77.248 610.352 82.624H648.224ZM678.635 90.112C678.635 81.856 680.315 74.656 683.675 68.512C687.035 62.272 691.691 57.472 697.643 54.112C703.595 50.656 710.411 48.928 718.091 48.928C727.979 48.928 736.139 51.424 742.571 56.416C749.099 61.312 753.467 68.224 755.675 77.152H733.931C732.779 73.696 730.811 71.008 728.027 69.088C725.339 67.072 721.979 66.064 717.947 66.064C712.187 66.064 707.627 68.176 704.267 72.4C700.907 76.528 699.227 82.432 699.227 90.112C699.227 97.696 700.907 103.6 704.267 107.824C707.627 111.952 712.187 114.016 717.947 114.016C726.107 114.016 731.435 110.368 733.931 103.072H755.675C753.467 111.712 749.099 118.576 742.571 123.664C736.043 128.752 727.883 131.296 718.091 131.296C710.411 131.296 703.595 129.616 697.643 126.256C691.691 122.8 687.035 118 683.675 111.856C680.315 105.616 678.635 98.368 678.635 90.112ZM793.916 66.784V105.376C793.916 108.064 794.54 110.032 795.788 111.28C797.132 112.432 799.34 113.008 802.412 113.008H811.772V130H799.1C782.108 130 773.612 121.744 773.612 105.232V66.784H764.108V50.224H773.612V30.496H793.916V50.224H811.772V66.784H793.916Z" fill="white"/>
<path d="M13 154C5.8203 154 0 148.18 0 141C0 133.82 5.8203 128 13 128H80V154H13Z" fill="#45FF8F"/>
<path d="M222.761 39.8543C227.838 34.7774 236.069 34.7774 241.146 39.8543C246.222 44.9311 246.222 53.1622 241.146 58.239L193.769 105.615L175.385 87.2304L222.761 39.8543Z" fill="#45DEFF"/>
<path d="M268 128C275.18 128 281 133.82 281 141C281 148.18 275.18 154 268 154H201V128H268Z" fill="#45BCFF"/>
<path d="M127 13C127 5.8203 132.82 0 140 0C147.18 0 153 5.8203 153 13V80H127L127 13Z" fill="#45FFE9"/>
<path d="M40.1924 58.239C35.1156 53.1622 35.1156 44.9311 40.1924 39.8542C45.2692 34.7774 53.5003 34.7774 58.5772 39.8542L105.953 87.2304L87.5685 105.615L40.1924 58.239Z" fill="#45FFD2"/>
</svg>
