<svg width="281" height="154" viewBox="0 0 281 154" fill="none" xmlns="http://www.w3.org/2000/svg">
<path d="M13 154C5.8203 154 0 148.18 0 141V141C0 133.82 5.8203 128 13 128H80V154H13Z" fill="#45FF8F"/>
<path d="M222.761 39.8543C227.838 34.7774 236.069 34.7774 241.146 39.8543V39.8543C246.222 44.9311 246.222 53.1622 241.146 58.239L193.769 105.615L175.385 87.2304L222.761 39.8543Z" fill="#45DEFF"/>
<path d="M268 128C275.18 128 281 133.82 281 141V141C281 148.18 275.18 154 268 154H201V128H268Z" fill="#45BCFF"/>
<path d="M127 13C127 5.8203 132.82 0 140 0V0C147.18 0 153 5.8203 153 13V80H127L127 13Z" fill="#45FFE9"/>
<path d="M40.1924 58.239C35.1156 53.1622 35.1156 44.9311 40.1924 39.8542V39.8542C45.2692 34.7774 53.5003 34.7774 58.5772 39.8542L105.953 87.2304L87.5685 105.615L40.1924 58.239Z" fill="#45FFD2"/>
</svg>
