<svg width="1500" height="750" viewBox="0 0 1500 750" fill="none" xmlns="http://www.w3.org/2000/svg">
<path d="M63.3117 750C28.3457 750 0 721.654 0 686.688C0 651.722 28.3456 623.377 63.3117 623.377L427.046 623.377V750L63.3117 750Z" fill="#45FF8F"/>
<path d="M1189.11 194.101C1216.21 169.376 1260.15 169.376 1287.25 194.101C1314.35 218.825 1314.35 258.912 1287.25 283.637L1034.35 514.365L936.215 424.829L1189.11 194.101Z" fill="#45DEFF"/>
<path d="M1436.69 623.372C1471.65 623.372 1500 651.718 1500 686.684C1500 721.65 1471.65 749.995 1436.69 749.995H1072.95V623.372H1436.69Z" fill="#45BCFF"/>
<path d="M677.937 69.395C677.937 31.0692 709.006 0 747.332 0C785.657 0 816.727 31.0692 816.727 69.395L816.727 389.61H677.937L677.937 69.395Z" fill="#45FFE9"/>
<path d="M214.551 283.639C187.451 258.915 187.451 218.828 214.551 194.103C241.652 169.378 285.59 169.378 312.691 194.103L565.588 424.831L467.449 514.367L214.551 283.639Z" fill="#45FFD2"/>
</svg>
