<svg width="498" height="115" viewBox="0 0 498 115" fill="none" xmlns="http://www.w3.org/2000/svg">
<path d="M0.416062 72.824C0.416062 64.76 2.00006 57.608 5.16806 51.368C8.43206 45.128 12.8481 40.328 18.4161 36.968C23.9841 33.608 30.1761 31.928 36.9921 31.928C42.1761 31.928 47.1201 33.08 51.8241 35.384C56.5281 37.592 60.2721 40.568 63.0561 44.312V6.44H83.5041V113H63.0561V101.192C60.5601 105.128 57.0561 108.296 52.5441 110.696C48.0321 113.096 42.8001 114.296 36.8481 114.296C30.1281 114.296 23.9841 112.568 18.4161 109.112C12.8481 105.656 8.43206 100.808 5.16806 94.568C2.00006 88.232 0.416062 80.984 0.416062 72.824ZM63.2001 73.112C63.2001 68.216 62.2401 64.04 60.3201 60.584C58.4001 57.032 55.8081 54.344 52.5441 52.52C49.2801 50.6 45.7761 49.64 42.0321 49.64C38.2881 49.64 34.8321 50.552 31.6641 52.376C28.4961 54.2 25.9041 56.888 23.8881 60.44C21.9681 63.896 21.0081 68.024 21.0081 72.824C21.0081 77.624 21.9681 81.848 23.8881 85.496C25.9041 89.048 28.4961 91.784 31.6641 93.704C34.9281 95.624 38.3841 96.584 42.0321 96.584C45.7761 96.584 49.2801 95.672 52.5441 93.848C55.8081 91.928 58.4001 89.24 60.3201 85.784C62.2401 82.232 63.2001 78.008 63.2001 73.112ZM113.418 23.72C109.866 23.72 106.89 22.616 104.49 20.408C102.186 18.104 101.034 15.272 101.034 11.912C101.034 8.55199 102.186 5.76799 104.49 3.55999C106.89 1.25599 109.866 0.103994 113.418 0.103994C116.97 0.103994 119.898 1.25599 122.202 3.55999C124.602 5.76799 125.802 8.55199 125.802 11.912C125.802 15.272 124.602 18.104 122.202 20.408C119.898 22.616 116.97 23.72 113.418 23.72ZM123.354 33.224V113H103.194V33.224H123.354ZM138.088 72.824C138.088 64.76 139.672 57.608 142.84 51.368C146.104 45.128 150.472 40.328 155.944 36.968C161.512 33.608 167.704 31.928 174.52 31.928C180.472 31.928 185.656 33.128 190.072 35.528C194.584 37.928 198.184 40.952 200.872 44.6V33.224H221.176V113H200.872V101.336C198.28 105.08 194.68 108.2 190.072 110.696C185.56 113.096 180.328 114.296 174.376 114.296C167.656 114.296 161.512 112.568 155.944 109.112C150.472 105.656 146.104 100.808 142.84 94.568C139.672 88.232 138.088 80.984 138.088 72.824ZM200.872 73.112C200.872 68.216 199.912 64.04 197.992 60.584C196.072 57.032 193.48 54.344 190.216 52.52C186.952 50.6 183.448 49.64 179.704 49.64C175.96 49.64 172.504 50.552 169.336 52.376C166.168 54.2 163.576 56.888 161.56 60.44C159.64 63.896 158.68 68.024 158.68 72.824C158.68 77.624 159.64 81.848 161.56 85.496C163.576 89.048 166.168 91.784 169.336 93.704C172.6 95.624 176.056 96.584 179.704 96.584C183.448 96.584 186.952 95.672 190.216 93.848C193.48 91.928 196.072 89.24 197.992 85.784C199.912 82.232 200.872 78.008 200.872 73.112ZM261.026 6.44V113H240.866V6.44H261.026ZM355.104 71.384C355.104 74.264 354.912 76.856 354.528 79.16H296.208C296.688 84.92 298.704 89.432 302.256 92.696C305.808 95.96 310.176 97.592 315.36 97.592C322.848 97.592 328.176 94.376 331.344 87.944H353.088C350.784 95.624 346.368 101.96 339.84 106.952C333.312 111.848 325.296 114.296 315.792 114.296C308.112 114.296 301.2 112.616 295.056 109.256C289.008 105.8 284.256 100.952 280.8 94.712C277.44 88.472 275.76 81.272 275.76 73.112C275.76 64.856 277.44 57.608 280.8 51.368C284.16 45.128 288.864 40.328 294.912 36.968C300.96 33.608 307.92 31.928 315.792 31.928C323.376 31.928 330.144 33.56 336.096 36.824C342.144 40.088 346.8 44.744 350.064 50.792C353.424 56.744 355.104 63.608 355.104 71.384ZM334.224 65.624C334.128 60.44 332.256 56.312 328.608 53.24C324.96 50.072 320.496 48.488 315.216 48.488C310.224 48.488 306 50.024 302.544 53.096C299.184 56.072 297.12 60.248 296.352 65.624H334.224ZM364.635 73.112C364.635 64.856 366.315 57.656 369.675 51.512C373.035 45.272 377.691 40.472 383.643 37.112C389.595 33.656 396.411 31.928 404.091 31.928C413.979 31.928 422.139 34.424 428.571 39.416C435.099 44.312 439.467 51.224 441.675 60.152H419.931C418.779 56.696 416.811 54.008 414.027 52.088C411.339 50.072 407.979 49.064 403.947 49.064C398.187 49.064 393.627 51.176 390.267 55.4C386.907 59.528 385.227 65.432 385.227 73.112C385.227 80.696 386.907 86.6 390.267 90.824C393.627 94.952 398.187 97.016 403.947 97.016C412.107 97.016 417.435 93.368 419.931 86.072H441.675C439.467 94.712 435.099 101.576 428.571 106.664C422.043 111.752 413.883 114.296 404.091 114.296C396.411 114.296 389.595 112.616 383.643 109.256C377.691 105.8 373.035 101 369.675 94.856C366.315 88.616 364.635 81.368 364.635 73.112ZM479.916 49.784V88.376C479.916 91.064 480.54 93.032 481.788 94.28C483.132 95.432 485.34 96.008 488.412 96.008H497.772V113H485.1C468.108 113 459.612 104.744 459.612 88.232V49.784H450.108V33.224H459.612V13.496H479.916V33.224H497.772V49.784H479.916Z" fill="white"/>
</svg>
